<svg width="100vh" height="100vh" xmlns="http://www.w3.org/2000/svg">
    <path id="Shan_MM" fill="#80cdc1" stroke="#000" stroke-width="0.1"
        d="M608.52 459.44c0 .55-.75.9-1.1 1.29-.55.16-.85 1.07-1.49.63-.38.27 0 1.18-.35 1.65-.09.65-.83.49-.69 1.07-.3.66.17.96.82.71.17.3-.7.88-1.1.55-.63-.33-.85.16-1.31.47-.72.82-.58 1.95-.6 3.02-.09.66-.25.52-.66.05-.53-.05-.64-.82-1.24-.38-.25.44-.36.93-1.02.88-.44.13-.99-.11-1.45-.28-.9-.58-.06.28.05.69.41.41.55.93-.05 1.26-.5.33-1.16.55-1.6 0-.74-.38-1.59.33-1.31 1.1 0 .47.27 1.04 0 1.48-.52.66-.8-.1-1.3-.05-.32.5-1.1.24-1.4.77-.4.35-.7-.22-1.26.1-.5-.27-1.23.58-1.29-.27-.52-.2-.96-.55-1.43-.66-.27.47.44 1.24-.16 1.43-.33.55-.82.5-.88-.14-.38-.19-.69-.16-1.07-.16-.44-.06-.93-.33-1.04-.77.3-.55-.28-.82-.55-1.15-.36.5-.74-.36-1-.39-.07.39-.49.63-.87.36 0-.28-.44-1.02-.63-.52.14.6-.06 1.18.08 1.8-.22.5-.99.7-1.2 1.3-.45.52 0 .93.13 1.43 0 .27-.63 1.4-.5.6-.16-.74-1.28-.68-1.37-1.43.06-.68-.74-.35-.96-.8.17-.21.6-.32.63-.7q-.57-.56-1.04-1.24c-.44.05-.66-.03-.74-.5-.11-.16-.85-.87-.41-.87.22.02.55-.17.44-.5-.33-.2-.14-.55.05-.74.66-.36-.05-.9-.2-1.37q-.3-.55-.13-1.13c.03-.22.52-.36.2-.88-.36 0-.53-.5-.75-.74-.08-.41.25-.8.69-.69-.06-.3.22-.82-.28-.9-.27-.39-.54.05-.87-.36-.44.06-.88-.3-1.32-.41-.55-.25-.22-.82-.36-1.2.11-.56.74-.12 1.02-.34a8 8 0 0 1-.94-2.33c.44-.22.06-.83.83-.74.4 0 .74-.33 1.1-.39.32-.22.38-.93.82-.9.44-.06.52-.55.99-.14.27-.11-.06-.55-.14-.72l-.63-1.04c-.55-.27-.28-1.23-1.02-1.1-.5-.27-1.1-.35-1.48-.68.05-.55-.47-.83-.55-1.35-.2-.44-1.04 0-.82-.69q.05-.57-.36-.9c0-.5-.66-.74-.6-1.27-.5-.13 0-.96.46-.65.44-.09.72-.14 1.16-.11.27-.5.9.05 1.15-.42-.11-.4.66-.87-.06-1.04-.35 0-.76-.16-.71-.55-.27.25-.55-.47-.71 0-.64.06-1.57.41-1.95-.25-.03-.35-.69-.6-.36-.98.14-.28.03-.75 0-1.02-.33-.44.16-.08.22-.28-.22-.43.63-.52.27-.9.11-.39.44-.69.64-1.1.13-.38-.06-.9.4-1.1.12-.46.47-.99 0-1.34-.27-.28-.13-1.16-.73-.94-.28.74-.72-.38 0-.4.46-.17 1.29-.97 1.62-.28.05.57.74 1.04 1.23 1.1.41-.44.72.8.52 1.1-.3.32-1.26.62-.27.82.38.16 1.2-.14 1.2.5.34.49.94-.04 1.38-.1.25-.05.55-.24.74-.27.25-.3.69-.22.99-.57.55-.06 1.15-.28 1.26-.74.33-.44.88-.55 1.18-1.05a4.6 4.6 0 0 1 2.28-.88c.55.33.96-.02 1.49-.1.6-.09 1.01.74 1.56.21.44-.05 1.3-.49 1.48-.1-.13.49-.74.82-1.15 1.12-.2.3.2.99.14 1.46.41.19 1.18.1 1.1.82.3.44.8.88.08 1.18-.06.74.82.36.9 1.1 0 .68-.08.55.28 1.01-.52.75.05 1 .77 1 .41.05.6.68 1.2.46.42.1.56.58.97.05.27-.74.74.6 1.34.25.06.39.72.88.44 1.26-.85-.43-.57 0-.74.64-.36.55-.63.93-.08 1.56.1.5.41 1.13 0 1.57-.55.38-.33.9-.5 1.53-.22.55-.43.91.25 1.1.6.33 1.21-.08 1.76 0 .55.11 1.2.06 1.54.55.27-.6 1.04.5 1.15.03.36-.36.74.05.88.47.27.55-.39 1.18.14 1.64 0 .83.82.72 1.37.83.52.27-.41.63-.03 1.1.22.4.74 1.26 1.15.6.44-.05.53-.82 1.02-.44.3.52.74.55 1.3.52.76-.19 1.09-.93 1.5-1.54.44-.4 1.18-.38 1.57-.93.55-.08.55.77.85 1.1.16.14-.14.47 0 .58Z"
        data-originalStrokeWidth="0.1"
        style="shape-rendering: auto; stroke: rgb(0, 0, 0); filter: none; fill: rgb(128, 205, 193); stroke-width: 0.1;">
    </path>
    <path id="Kachin_MM" fill="#80cdc1" stroke="#000" stroke-width="0.1"
        d="m577.4 406.41.09.14.05.16.14.72v.16l-.03.2.06.08.27.13.14.11.1.14.04.11-.11.08-.11.09.08.13.14.17.27.14.05.08v.1l.03.17.06.09.05.02.03.06v.22l.33.38.16.28.3.63.2.27.27.08.22-.05.08-.2v-.51l-.08-.28-.03-.16.06-.09.08.03.41.2.14.1.2-.1.16.1.22.33.1.09h.2l.06-.06.05-.05.05-.03h.17l.08.1.08.1.03.05.06.16v.33l.08.33.2.71.02.09.05.02h.06l.05.03.14.28v1.07l.03.27.2.5.07.13.11.06.09.02.13.11.08.17v.14l-.05.13-.03.17.3.71.03.06v.08l-.08.14v.08l.05.16.22.28.09.1.02.17-.02.3v.17l.16.27.03.06v.08l.03.06.05.08.06.16v.17l-.11.27v.28l.22 1.04v.3l-.06.14-.2.33v.17l-.02.16v.14l.08.08.11-.03.09.06.27.4.03.12v.08l-.06.06-.02.02.02.2-.02.05-.22.22h-.09l-.05-.08-.06-.28-.05-.02-.11.05-.25.06-.08.08v.14l.05.13.06.14.2.27.05.17.02.16.09.11h.22l.08.09.3.38.11.14.03.03.08.05.05.03.06.1v.23l-.06.08-.27.27-.14.06h-.05l-.08-.06-.22-.05-.17-.17-.1-.02h-.12l-.05.05-.14.22-.08.08v.14l-.06.28-.05.05-.03.06-.03.05v.25l-.19.33v.1l-.03.36-.05.11-.08.11-.11.06-.17.05h-.08l-.25-.22-.1-.05-.61-.22h-.09v.1l.11.42v.11l-.08.11-.1.11v.11l.07.22.03.08.03.06.05.33.03.1v.06h-.14l-.08.11-.05.17-.06.33-.05.1-.28.14-.08.09-.22.43-.14.09h-.13l-.09-.06-.08-.1-.08-.14-.28-.14-.13.19-.06.63-.08.39-.08.16-.08.11-.11.03-.03.08.08.28.11.54.08.28.14.25.3.22.11.1-.03.17-.1.08h-.14l-.28-.05h-.16l-.14.13-.22.22-.41.36v.17l.22 1.01.03 1.1.02.17.06.08.55-.11h.16l.11.03.08.05.03.08.06.09v.08l.08.1.14.09.05.08.06.17-.11.05h-.14l-.08.11.08.2.55.21.08.28-.03.05-.05.06-.03.05v.09l.03.08.1.16.06.08v.2l-.02.16-1.1 1.48.16.14.28.14.3.2.05.05.03.08.08.16.06-.13.05-.06.06.14-.06.16v.06l-.13.05-.2.11-.68.14h-.03l-.3.3h-.33l-.06.06-.13.19-.09-.06h-.05l-.03.06-.03.03v.05l-.02.03h-.36l-.03.05-.05.03-.06.11h-.05l-.03.03h-.33l-.5.27h-.52l-.05-.02-.03-.03-.03-.06-.02-.08v-.05l-.06-.17v-.03l-.08-.08-.27-.08-.3-.06h-.12l-.08.03h-.05l-.69-.22-.06-.05v-.14h.06l.52-.27.08-.06.06-.05.05-.17.03-.25v-.27l-.08-.17-.08-.19-.09-.16-.05-.11-.06-.03h-.05l-.06.03-.08.05v.08h-.22l-.14-.08-.57-.38-.2-.2-.08-.16-.08-.38-.2-.2-.18-.3-.14-.1-.14-.12-.1-.16-.03-.17-.17-.85v-.08l.06-.08.16-.17.05-.16-.27-.17-.08-.02H573l-.16-.06-1.1-.44h-.2l-.32.11-.44.06-.06.02-.05.06-.03.05-.06.06h-.08l-.08-.11-.06-.08-.08-.06-.33-.27-.22-.22-.05-.06-.33-.66-.17-.08-.68-.16-.14-.06-.08-.05-.08-.06-.11-.16-.55-1.24-.5-.82.14-.11.22-.11.22-.06.27-.1.09-.06.08-.08.03-.06.02-.08.03-.06h.11v.06l.03.05v.25l-.03.08-.03.14v.08l.06.08.03.03h.13l.06-.03.05-.05v-.06l.06-.08v-.33l-.03-.13-.08-.28-.14-.22-.2-.27-.43-.5-.14-.33-.38-1.5-.09-.7v-.32l.06-.09h.1l.1.06.05.05.05.09.06.02.05.03h.08l.03-.03.06-.05.02-.08.09-.14.33-.33.1-.14.06-.16v-.17l-.14-.24-.46-.47-.09-.14-.13-.36-.2-.3-.02-.1v-.14l.16-.88.03-.06.05-.05.06-.06.03-.08v-.28l-.25-.63-.2-.24-.08-.11-.08-.22-.14-.17-.13-.14-.03-.08-.05-.19-.06-.14-.11-.13-.47-.55-.05-.09-.03-.08v-.08l.03-.14.36-.1.19-.06.14-.11.1-.11v-.11l-.1-.41-.09-.11-.05-.14-.11-.11-.14-.11-.16-.14-.25-.22-.08-.1v-.12l.1-.14.78-.54v-.14l-.06-.36.03-.05.08-.06.2-.03.07-.05.06-.08-.03-.14v-.22l.06-.08-.06-.08-.27-.14-.11-.08v-.06l.08-.05h.6l.42.1.1.06h.25l1.16-.16h.38l.17-.03.38-.17.77-.05.55.05h.05l.09-.05.05-.03v-.03l.08-.1.28-.61.02-.03h.17l.08.08h.14v-.08l.03-.19v-.05l-.06-.11-.05-.03-.09-.06-.05-.05-.06-.08v-.14l-.08-.06-.22-.22-1.45-1.53-.25-.28-.06-.16.03-.22-.03-.14-.02-.06-.08-.16v-.05l-.06-.09-.11-.13-.03-.09-.05-.16.03-.17.05-.13.11-.09.22-.22.08-.1.17-.3.08-.06.2-.09.1-.02h.03l.03-.03v-.2l.02-.02.14-.05v-.06l.06-.1.02-.04.09-.02.02-.03.28-.33.08-.14.06-.14.08-.08.1-.05.12-.03h.1l.12.1.02.12.06.05.14-.05.1-.08v-.17l-.05-.16v-.14l.06-.22v-.14l-.11-.22-.42-.38-.13-.2v-.27l.05-.5-.08-.21.05-.14.2-.14.05-.08v-.2h.36l.05-.07V405l-.08-.3-.03-.08-.05-.09v-.13l.08-.11v-.17l.08-.13.03-.28.06-.14v-.27l.13-.08.17.1.22.25.16.11.17-.13.19-.11.22.19.5.82.21.28.25.05.38-.22.28.14.44.44.27.16.11.09.03.13v.22l.06.09.27.05.16.06Z"
        data-originalStrokeWidth="0.1"
        style="shape-rendering: auto; stroke: rgb(0, 0, 0); filter: none; fill: rgb(128, 205, 193); stroke-width: 0.1;">
    </path>
    <path id="Chiang_Rai_TH" fill="#80cdc1" stroke="#000" stroke-width="0.1"
        d="m602.61 469.38.03.27.08.17.11.1.14.09h.1l.12-.11-.06-.33.06-.06.16-.08h.03l.06-.3.1-.2.2-.16.22-.05.27.08.17.16.55.97.22.27.05.03.06.1v.06l.08.06.13.05v.03l.09.08.13.08.11.03h.06v-.14h.05v.09l.09.4v.31l-.09.58-.1.55v.38l-.06.11-.06.06-.1.05-.06.06-.03.05-.05.25-.08.1-.11.28v.14l.02.1.06.06-.06.06-.19.33-.05.05h-.09l-.19.06h-.03l-.02.03-.06.05v.06l-.03.02h-.02l-.03.03h-.3l-.06.06-.16.13-.03.03v.06l-.06.16v.2l.03.02v.05l-.03.03-.02.03v.2l-.03.07-.06.06v.14l.03.02v.09h-.03l-.27.13-.03.03v.17l-.05.02h-.03l-.08-.02-.08-.03h-.22l-.06.03-.03.02-.22.28-.05.05h-.03l-.05.03h-.09l-.1-.05-.03-.03-.03-.03-.03-.05v-.58l-.03-.03h-.02l-.06-.05-1.1.22h-.05l-.03.05-.08.08-.08.06h-.14l-.06-.14-.08-.08-.14-.08-.05-.09-.03-.05v-.06l-.05-.05-.03-.06h-.14v.03l-.05.03-.06.2-.05.02v.2l-.06.16v.27l.06.06.05.05v.05l.03.06.03.11v.33l.03.05v.11l-.09.33v.74l.03.03h.08l.03.06.03.02v.22h-.03l-.05.09v.19l-.03.05v.03H600l-.05.03h-.03l-.05.05-.28.44h-.05v.03l-.06.03-.2.03-.1-.36-.06-.11-.08-.06-.38-.44v-.05l-.2-.44v-.41l.12-.14v-.22l-.22-.5v-.08l.02-.1v-.09l-.08-.22-.1-.22v-.05l-.04-.06v-.19l-.05-.08v-.06l-.11-.1v-.03h-.03v-.03l.03-.08.08-.11.03-.06v-.1l-.06-.06-.02-.03-.03-.06-.03-.05-.05-.16-.03-.03v-.03h-.14l-.03-.05-.05-.06-.06-.14-.02-.08v-.14l.02-.05.06-.06.14-.1.02-.03v-.03l.03-.06v-.02h.03l.05-.06h.11l.03-.03v-.05h.03l.03-.11v-.28l.02-.05v-.03l.06-.08v-.11l.03-.03v-.02h.02v-.03h.06l.08-.03.06-.03v-.05l-.03-.06-.03-.08v-.03l-.05-.02-.06-.06h-.03l-.02-.05-.03-.03-.06-.17v-.16h.03v-.03h.06v-.05l.02-.06v-.27l.03-.03.08-.06.06-.05h.03v-.03h.05l.14.03h.24l.03.03.08.02.06.03v.06l.03.05v.08h.02l.03.06v.03l.11.08h.06v-.06l.05-.16v-.06l.06-.05v-.47h-.06v-.02l-.2-.03h-.02l-.05-.06h-.03l-.06-.08H599l-.11-.08-.06-.03-.03-.03v-.05l-.05-.06v-.08l.03-.03.16-.05.14-.14h.03V471l.02-.06-.02-.03-.06-.02-.1-.03-.06-.03-.06-.03-.08-.05-.05-.06.05-.13v-.22l-.05-.14-.28-.27-.14-.44-.08-.17-.27-.27-.11-.14.13-.06.11.03.36.28.55.16h.3l.06.03.1.08h.23l.22-.14h.4l.14-.05.11-.14.03-.14.06-.27.05-.14.11-.08.17-.05.35-.06h.09l.08.06.05.05v.08l.06.08.08.06.08.11.09.03h.19l.1.08.06.08.03.06.08.1.33.2Z"
        data-originalStrokeWidth="0.1"
        style="shape-rendering: auto; stroke: rgb(0, 0, 0); filter: none; fill: rgb(128, 205, 193); stroke-width: 0.1;">
    </path>
    <path id="Chiang_Mai_TH" fill="#80cdc1" stroke="#000" stroke-width="0.1"
        d="M599.29 480c-.33.14 0 .44-.08.69.05.2-.47.33-.2.47.17.05.17.44.28.57.1.33-.28.66-.03.96q-.16.33.17.47c-.03.22-.17.39-.17.6q-.41-.24-.8-.54c.03-.14.14-.39-.1-.47s-.14-.44-.36-.39c-.28-.08-.33.28-.6.22-.14.28-.23.09-.42.06l-.33.8q-.16.46-.6.63c-.28.19-.47.5-.82.5-.2.05-.11.43-.09.65 0 .27-.13.47.3.55.28.14.55.27.55.63 0 .28.28.44.25.74.14.36-.14.83.17 1.16.35-.17.33.27.46.49l.36.66c-.06.25.05.55-.08.71q-.33.28-.6 0a.8.8 0 0 0-.91-.02c-.28.05 0 .35-.22.46-.28.2.02.44.05.69 0 .33-.46.14-.5.44-.07.3-.07.71.23.88.16.19-.06.44.03.63.21.05.19.38.13.55-.27.16-.63.05-.85.27-.27.06-.41-.27-.66-.3-.19-.16 0-.47-.19-.66-.3-.16.05-.33-.11-.5-.22-.13 0-.49-.11-.7-.08-.2-.16-.56-.44-.42a.8.8 0 0 1-.1-.69c.4-.24 0-.38-.28-.49-.09-.2-.33-.41-.17-.6.06-.17.17-.39-.08-.5-.33-.22-.47-.63-.82-.77-.36-.22-.42-.68-.28-.99.36-.16-.08-.43-.05-.65.05-.28-.14-.47-.2-.7 0-.24.22-.54-.05-.68-.17-.33.41-.46.36-.82 0-.17.44 0 .22-.28q-.36-.1-.58-.4c-.28-.28-.06-.7-.33-.94l-.06-.74c.03-.22.09-.41-.16-.47-.22-.27-.11-.58 0-.88.08-.27-.06-.55-.16-.82a.8.8 0 0 0 0-.74c.27-.09.05-.47.27-.55.14-.22.33.05.5.08.21.14.27.41.52.55.13.22.3.47.63.36.22-.09.52.35.6.08.08-.33.47.14.66-.08.2-.09.52-.09.52-.39.06-.44-.33-.71-.57-1.01a2 2 0 0 0-.2-1.43q.06-.41 0-.83-.24-.19-.33-.5c-.27-.16-.1-.54-.44-.62q-.38-.22-.4-.66c.27.08.4.38.6.08.33 0 .3-.47.66-.41q.52 0 .87-.41c.22-.11.53.22.66.44q.36-.2.69-.5c.22-.33-.22-.71 0-1.04-.14-.36-.2-.82 0-1.15.44-.5 1.2-.42 1.65.02.3.25.68-.1 1.01-.16.28 0 .39-.6.63-.39.2.09.5.22.17.42-.33 0-.22.35 0 .4.1.23.55.06.47.4 0 .16-.03.73-.25.54-.08-.16-.11-.36-.33-.38-.22.05-.47-.11-.55.19.08.25-.22.41-.1.63.05.17.46.44.13.5-.22.16-.14.52-.22.74l-.44.38c-.22.17-.03.58.22.6 0 .25.36.39.16.6-.24.23.22.4.11.67.09.27.28.52.2.8.08.27.38.63.1.9-.1.55.28 1.02.66 1.37.09.11.14.42.17.44"
        data-originalStrokeWidth="0.1"
        style="shape-rendering: auto; stroke: rgb(0, 0, 0); filter: none; fill: rgb(128, 205, 193); stroke-width: 0.1;"
        class=""></path>
    <path id="Louang_Namtha_LA" fill="#80cdc1" stroke="#000" stroke-width="0.1"
        d="m613.24 462.6.1.13v.63l-.05.28-.1.27-.28.08-.25.17-.19.22.03.3.1.14-.02.1h-.3l-.11.06-.25.09-.27.27-.17.55-.22.16.72.25.08.2.27.21.11.14.14.63-.11.63-.06.17-.13.14-.09.19-.16.46-.5.28-.68.05-.36-.02v.08l-.22-.06-.46.11-.44-.1-.17-.06-.27-.25-.06-.2-.05-.27-.17-.27-.16-.27-.22-.14-.52.05-.22-.08-.14-.44-.06-.33-.22-.35-.1-.2-.11-.16-.2-.11-.13-.17-.17-.35-.27-.22-.36-.11-.22-.28v-.03l.11-.1.14-.2v-.05l-.22-.03-.6.11-.14-.1v-.7l.13-.1.03-.06v-.06l-.14-.22.11-.05.3-.08.14-.08.06-.11.27-.75.06-.96v-.1l-.03-.09v-.05l.1-.03h.12l.08.03.06.05.13.06.17-.03.22-.11.08-.08.2-.28h.08l.6-.38.82-.88.11-.03v-.14l-.05-.13h.1l.12.13.05.25-.02.66.02.16.08.03.22.14.14.08h.03l.03.06-.06.24-.08.17.03.03.08.08v.44l.08.08.14.25.08.08.14.1.1.06h.12l.14-.08.3-.27.14-.03.76-.17h.3l.28.11.06.03.05.08v.09l-.03.08v.14l.14.02.25-.13h.13l.11.1.17.28.14.06h.22l.1-.06.09-.05Z"
        data-originalStrokeWidth="0.1"
        style="shape-rendering: auto; stroke: rgb(0, 0, 0); filter: none; fill: rgb(128, 205, 193); stroke-width: 0.1;">
    </path>
    <path id="Phôngsali_LA" fill="#80cdc1" stroke="#000" stroke-width="0.1"
        d="m614.09 452.63.08.1.06.09.1.27.09.09h.03v.16l.02.05.11.11.14.09.14.1.05.17.17.14.46.22.55.55.28.14.05.05.06.08.1.2.06.1.17.11.19.11.14.11-.06.09v.02l-.02.03v.06l.1.3.28.16.36.11.24.2.33.57.11.33.03.47.06.19.05.2.08.1.06.08h.41l.08-.02.2-.17.1-.22.06-.24-.08-.64.08-.13.16.1.11.4.03.3.06.16.1.1h.12l.46-.27h.08l.06.11.05.09v.08l.11.55.06.19.08.2v.07l-.1.14-.2.36-.14.16-.22.55.11-.05.11-.09.14-.08h.08v.11l-.16.41v.17l.05.36v.13l-.08.11-.22.06-.08.08-.06.16.06.03h.27l.11.06.11.05.08.08.06.11v.06l-.03.16v.09l.06.08h.1l.09.05.08.14-.55.06-.1-.03h-.12l-.05.14v.38l.05.22-.05.11-.2.03-.05.02v.11l-.47.22-.08.06-.08.25-.22-.06-.2.06-.1.1-.33.56-.41-.2-.06-.16-.1-.08-.2-.03h-.22l-.25-.17-.27-.13-.2-.22-.27-.17-.27-.1-.22.07h-.22l-.28-.16-.22-.22-.4-.47-.23-.13-.58-.14-.08-.11-.14-.06-.1-.05-.36-.28-.14-.05v-.11l-.05-.11-.06-.08-.1-.08-.1-.06-.38-.14-.1-.1-.09-.12v-.44l-.08-.82.08-.16v-.14l-.14-.33v-.14l.09-.05.13-.03.14-.06.06-.13-.03-.17-.11-.05-.14-.06-.1-.05-.06-.11v-.25l-.06-.05-.14-.11-.02-.06-.03-.1v-.15l.05-.46v-.09l-.21-.16-.03-.06-.14-.19-.2-.24v-.06l-.02-.05-.03-.09-.05-.05-.28-.08-.16-.11-.08-.11-.09-.33-.08-.17-.27-.33-.09-.16v-.47l-.05-.22-.11-.14-.27-.27v-.14l.05-.16.06-.06.08-.03h.16l.08.03.09-.05.02-.06.06-.33v-.16l.08-.14h.03v-.16l-.06-.17v-.16l.03-.17.08-.14.11-.13.17-.11h.27l.25.16.3.55.22.17.17.02.05-.08v-.16l.06-.14.1-.06h.28l.17-.08h.27l.44.11h.08l.08.06.03.08v.08l.08.06h.09Z"
        data-originalStrokeWidth="0.1"
        style="shape-rendering: auto; stroke: rgb(0, 0, 0); filter: none; fill: rgb(128, 205, 193); stroke-width: 0.1;">
    </path>
    <path id="Louangphrabang_LA" fill="#80cdc1" stroke="#000" stroke-width="0.1"
        d="m623.81 465.28.08-.02h.17l.44.27.19.06h.14l.16-.06v.14l-.36.22-.38.14-.14.08-.16.14-.03.33.03.38.1.47-.02.46-.14.22.14.22.16.22.11.06h.14v.1l-.05.12.08.27.03.33-.11.2-.39.52-.16.38.1.16.28.33.08.11-.05.09-.08.08v.41l.05.55.08.36-.05.19-.11.1-.36.04-.16.08-.11.1-.22.12-.17.14.06.38v.38l-.25.06h-.27l.05.16-.05.17-.28.3-.38.33-.11.14-.08.16-.28.28v.44l.14.4.22.17.19.22.22.47-.25.33-.35.14-.47.27-.28-.22-.27-.22-.08-.2-.11-.16-.14-.02-.16-.09.02-.13.03-.14-.2.03h-.18l-.14-.11-.11-.08-.2.08-.21.13-.25-.16-.22.05-.14-.1-.1-.11-.17-.06h-.2l-.24.08-.2.14-.02.5-.08.08-.11.1-.06.12-.08.08-.14.05-.05.11v.33l-.17.47-.27.36-.2.05-.05.06-.05.08-.14.1-.17.2-.05-.8v-.43l-.11-.47v-.25l.14-.27v-.17l.02-.1.2-.28.05-.08-.08-.09-.3-.13-.14-.09-.08-.1-.09-.12-.05-.1-.16-1.08v-.27l-.06-.06H615l-.11-.19-.09-.5.06-.13.05-.38-.05-.39-.11-.14-.14-.13-.1-.14-.2-.2.27-.08.55-.08.25-.05.2-.2.3-.43.13-.17.14-.03.38.03h.11l.36-.27h.22l.08-.28.14-.16v-.28l-.11-.27-.27-.28-.03-.35.05-.22-.05-.22-.14-.14-.1-.14v-.25l.18-.7.06-.45.1-.41v-.2l.47-.07.2-.28.05-.38v-.17l-.08-.14-.08-.1v-.12l-.06-.19.06-.3-.03-.2-.11-.18-.28-.33-.02-.22.27.13.25.17h.22l.2.05.1.09.06.16.4.17.31-.55.14-.09.16-.05.28.03.05-.25.08-.06.44-.22v-.08l.09-.03.19-.02.05-.14-.05-.2v-.38l.05-.16h.11l.11.05.55-.05.11.3.08.14.03.08.06.06h.16l.2.08.1.13.22.39.28.5.19.24.25.28.1.1.06.03.08.03.11.03h.09l.05.05.11.08Z"
        data-originalStrokeWidth="0.1"
        style="shape-rendering: auto; stroke: rgb(0, 0, 0); filter: none; fill: rgb(128, 205, 193); stroke-width: 0.1;">
    </path>
    <path id="Oudômxai_LA" fill="#80cdc1" stroke="#000" stroke-width="0.1"
        d="m617.25 464.19.05.22.28.33.08.19v.16l-.03.33.06.2v.1l.08.11.08.14v.17l-.05.35-.2.28-.46.1v.17l-.11.44-.06.44-.19.71v.25l.11.14.14.1.05.26-.05.22.03.33.27.3.14.27v.28l-.17.16-.08.28H617l-.36.27h-.1l-.4-.03-.13.03-.14.17-.27.43-.22.2-.25.05-.55.06-.27.08-.08.08-.17.22-.05.06h-.11l-.14.1-.08.09.1.05-.13.22-.25.06h-2.11l-.17-.03-.49-.36-.14-.05-.08-.06-.08-.02h-.14l-.16.13-.14.2-.11.05-.11-.14h-.06v.06l-.05.08v.06l-.28-.22-.35-.11-.88-.14h-.08l-.09.05-.1.11-.2-.35-.05-.33.55-.25h.63l.13-.08.14-.11.14-.17.1-.22.04-.27.19-.17.27-.05.44.33.28.03.19-.11.11-.2.08-.19-.1-.9-.04-.11-.1-.2-.06-.16-.03-.08h.33l.72-.03.49-.28.16-.49.09-.16.1-.14.09-.17.1-.66-.13-.63-.08-.1-.27-.23-.14-.19-.69-.27.22-.14.17-.55.27-.27.27-.09.09-.05h.27l.06-.14-.11-.1-.03-.31.2-.22.27-.17.24-.1.11-.25.06-.28v-.63l-.11-.14v-.08l-.06-.1-.05-.1.08-.1.17.05h.05l.06-.05.02-.06v-.05l.17.08.35.28.11.02.14.09.08.08.55.16.28.11.38.47.22.22.28.16h.22l.24-.05.25.08.28.17Z"
        data-originalStrokeWidth="0.1"
        style="shape-rendering: auto; stroke: rgb(0, 0, 0); filter: none; fill: rgb(128, 205, 193); stroke-width: 0.1;">
    </path>
    <path id="Bokeo_LA" fill="#80cdc1" stroke="#000" stroke-width="0.1"
        d="m610.52 469.46.05.16.11.2v.13l.14.88-.08.2-.11.19-.22.1h-.22l-.47-.35-.27.05-.2.17v.27l-.13.22-.14.17-.14.1-.13.09h-.63l-.55.25.05.33.22.35-.1.11-.45.3-.05.03h-.25l-.08.03-.14.08h-.14l-.19.14-.22.03h-.25l-.3-.06-.24-.05.08-.14.05-.22.03-.05.05-.06.11-.05.06-.06.05-.1v-.42l.11-.52.09-.55v-.33l-.09-.44v-.06h-.05v.11l-.06.03-.13-.05-.11-.06-.06-.08-.03-.06-.13-.05-.06-.03-.02-.05-.06-.11-.05-.06-.22-.27-.55-.94-.17-.16-.27-.08-.22.05-.2.17-.1.19-.06.27h-.03l-.16.09-.06.08.03.3-.08.14h-.11l-.14-.08-.1-.14-.1-.14v-.27l-.05-.14v-.22l.06-.11.05-.11v-1.3l.03-.27.06-.22v-.21l.13-.25v-.11l.03-.14.06-.08.16-.2.14-.24.1-.08.28-.11.06-.11.02-.11.09-.11.13-.03.64.11.3.08h.16l.22-.08.2-.11.02-.06.28.28.3.1.27.26.2.35.13.14.2.14.1.16.12.17.21.38.06.33.1.41.28.11.5-.08.22.17.16.27.17.27.05.28.03.2.3.21.17.08.44.11.46-.13.25.05Z"
        data-originalStrokeWidth="0.1"
        style="shape-rendering: auto; stroke: rgb(0, 0, 0); filter: none; fill: rgb(128, 205, 193); stroke-width: 0.1;">
    </path>

</svg>